<svg id="icons" xmlns="http://www.w3.org/2000/svg" viewBox="0 0 19.96 27.1"><title>apple</title><path d="M13.74,32.64a3.36,3.36,0,0,1-2.21-.83,10,10,0,0,1-1.81-2A13.92,13.92,0,0,1,7.26,24a9.65,9.65,0,0,1,.16-4.44A6.49,6.49,0,0,1,11,15.27a5.59,5.59,0,0,1,2.93-.53,8.24,8.24,0,0,1,1.92.5l1.23.4c.67-.22,1.32-.44,2-.65a6.36,6.36,0,0,1,5.68.9,5.1,5.1,0,0,1,1.3,1.2l.71.94-1,.55a3.4,3.4,0,0,0-1.8,3.34,3.69,3.69,0,0,0,2.25,3.18l.86.36-.29.88A12.55,12.55,0,0,1,24.86,30a10.15,10.15,0,0,1-1.47,1.58,3.84,3.84,0,0,1-2.05,1.06,4.06,4.06,0,0,1-1.79-.2l-.77-.27L18.34,32a3.44,3.44,0,0,0-2.36.1c-.44.17-.85.31-1.27.43A3.4,3.4,0,0,1,13.74,32.64Zm-.37-15.93a3.62,3.62,0,0,0-1.56.36,4.51,4.51,0,0,0-2.47,3,7.7,7.7,0,0,0-.12,3.55,12,12,0,0,0,2.13,5,8.13,8.13,0,0,0,1.48,1.66,1.38,1.38,0,0,0,1.31.26c.38-.11.74-.23,1.11-.37a5.43,5.43,0,0,1,3.76-.1l.49.18.71.25a2,2,0,0,0,.89.12,1.86,1.86,0,0,0,.92-.51,8.36,8.36,0,0,0,1.15-1.32,10.68,10.68,0,0,0,1.29-2.25,5.69,5.69,0,0,1-2.62-4.42,5.36,5.36,0,0,1,1.77-4.58h-.06a4.39,4.39,0,0,0-3.94-.64c-.66.2-1.29.42-1.92.64a2,2,0,0,1-1.3,0l-1.27-.42a6.42,6.42,0,0,0-1.47-.39Z" transform="translate(-7.08 -5.54)"/><path d="M17.27,13.54h-.46l-.75-.08-.13-.72a4.28,4.28,0,0,1,0-1.47,6.88,6.88,0,0,1,5.65-5.6L23,5.54l.12,1A5.39,5.39,0,0,1,23,8.75a7,7,0,0,1-4,4.5A4.27,4.27,0,0,1,17.27,13.54Zm3.87-5.76a4.88,4.88,0,0,0-3.21,3.76l.23-.08A5,5,0,0,0,21,8.18a.93.93,0,0,0,.13-.35Z" transform="translate(-7.08 -5.54)"/></svg>