<svg id="icons" xmlns="http://www.w3.org/2000/svg" viewBox="0 0 17.68 24.97"><title>apple-filled</title><path d="M88.53,448.41a11.59,11.59,0,0,1-1.73,3.33,9.3,9.3,0,0,1-1.26,1.46A2.88,2.88,0,0,1,84,454a3,3,0,0,1-1.28-.16c-.41-.13-.81-.29-1.21-.43a4.46,4.46,0,0,0-3.07.12c-.39.15-.78.28-1.18.4a2.38,2.38,0,0,1-2.24-.48,9.05,9.05,0,0,1-1.64-1.83,12.89,12.89,0,0,1-2.3-5.42,8.65,8.65,0,0,1,.13-4,5.52,5.52,0,0,1,3-3.64,4.59,4.59,0,0,1,2.41-.44,7.19,7.19,0,0,1,1.64.43l1.29.42a1,1,0,0,0,.65,0c.64-.22,1.28-.44,1.93-.64a5.35,5.35,0,0,1,4.8.75A4.22,4.22,0,0,1,88,440.08a4.41,4.41,0,0,0-2.33,4.32A4.65,4.65,0,0,0,88.53,448.41Z" transform="translate(-70.84 -429.03)"/><path d="M85,429a4.42,4.42,0,0,1-.16,1.85,6,6,0,0,1-3.46,3.87,3.28,3.28,0,0,1-1.63.24,3.3,3.3,0,0,1,0-1.13,5.87,5.87,0,0,1,4.82-4.78Z" transform="translate(-70.84 -429.03)"/></svg>