<svg id="icons" xmlns="http://www.w3.org/2000/svg" viewBox="0 0 20 17"><defs><style>.cls-1{fill:#757575;}</style></defs><title>book</title><path class="cls-1" d="M22.5,3.5h-7a1,1,0,0,0-.71.29L13.5,5.09,12.21,3.79a1,1,0,0,0-.71-.29h-7a1,1,0,0,0-1,1v13a1,1,0,0,0,1,1h6.59l1.71,1.71a1,1,0,0,0,1.41,0l1.71-1.71H22.5a1,1,0,0,0,1-1V4.5A1,1,0,0,0,22.5,3.5Zm-11,13h-6V5.5h5.59L12.5,6.91V17.09l-.29-.29A1,1,0,0,0,11.5,16.5Zm10,0h-6a1,1,0,0,0-.71.29l-.29.29V6.91L15.91,5.5H21.5Z" transform="translate(-3.5 -3.5)"/></svg>