<svg id="icons" xmlns="http://www.w3.org/2000/svg" viewBox="0 0 16 20"><defs><style>.cls-1{fill:#757575;}</style></defs><title>click</title><path class="cls-1" d="M499,502h-7a1,1,0,0,1-.89-.55l-3-6A1,1,0,0,1,489,494h2v-6a1,1,0,0,1,1.32-.95l3,1a1,1,0,0,1,.68.95v4.22l3.24.81a1,1,0,0,1,.76,1v6A1,1,0,0,1,499,502Zm-6.38-2H498v-4.22l-3.24-.81a1,1,0,0,1-.76-1v-4.28l-1-.33V495a1,1,0,0,1-1,1h-1.38Z" transform="translate(-484 -482)"/><path class="cls-1" d="M498,482H486a2,2,0,0,0-2,2v7a2,2,0,0,0,2,2h3v-2h-3v-7h12v7h2v-7A2,2,0,0,0,498,482Z" transform="translate(-484 -482)"/></svg>