<svg id="icons" xmlns="http://www.w3.org/2000/svg" viewBox="0 0 20 20"><defs><style>.cls-1{fill:#757575;}</style></defs><title>database</title><path class="cls-1" d="M22,3.67H6a2,2,0,0,0-2,2v10a2,2,0,0,0,2,2h7v4H8v2H20v-2H15v-4h7a2,2,0,0,0,2-2v-10A2,2,0,0,0,22,3.67Zm0,2v4H6v-4Zm-16,10v-4H22v4Z" transform="translate(-4 -3.67)"/><rect class="cls-1" x="3" y="3" width="5" height="2"/><rect class="cls-1" x="3" y="9" width="5" height="2"/><circle class="cls-1" cx="18" cy="19" r="1"/><circle class="cls-1" cx="2" cy="19" r="1"/><circle class="cls-1" cx="13" cy="4" r="1"/><circle class="cls-1" cx="16" cy="4" r="1"/><circle class="cls-1" cx="13" cy="10" r="1"/><circle class="cls-1" cx="16" cy="10" r="1"/></svg>