<svg id="icons" xmlns="http://www.w3.org/2000/svg" viewBox="0 0 23.71 23.41"><defs><style>.cls-1{fill:#757575;}</style></defs><title>database-2</title><path class="cls-1" d="M253,689.57a17.36,17.36,0,0,1-4,.43c-4.55,0-7-1.42-7-2v-1.4a18.2,18.2,0,0,0,14,0V688h2V676c0-2.63-4.53-4-9-4s-9,1.37-9,4v12c0,2.63,4.53,4,9,4a20.36,20.36,0,0,0,4-.39ZM249,674c4.55,0,7,1.42,7,2s-2.45,2-7,2-7-1.42-7-2S244.45,674,249,674Zm-7,4.6a18.2,18.2,0,0,0,14,0V680c0,.58-2.45,2-7,2s-7-1.42-7-2Zm0,4a18.2,18.2,0,0,0,14,0V684c0,.58-2.45,2-7,2s-7-1.42-7-2Z" transform="translate(-240 -672)"/><polygon class="cls-1" points="18 23.41 14.29 19.7 15.71 18.29 18 20.58 22.29 16.29 23.71 17.7 18 23.41"/></svg>