<svg id="icons" xmlns="http://www.w3.org/2000/svg" viewBox="0 0 20 20"><defs><style>.cls-1{fill:#757575;}</style></defs><title>network</title><path class="cls-1" d="M21.62,15.38h-2v-1a3,3,0,0,0-3-3h-3v-2h2a1,1,0,0,0,1-1v-5a1,1,0,0,0-1-1h-6a1,1,0,0,0-1,1v5a1,1,0,0,0,1,1h2v2h-3a3,3,0,0,0-3,3v1h-2a1,1,0,0,0-1,1v5a1,1,0,0,0,1,1h6a1,1,0,0,0,1-1v-5a1,1,0,0,0-1-1h-2v-1a1,1,0,0,1,1-1h8a1,1,0,0,1,1,1v1h-2a1,1,0,0,0-1,1v5a1,1,0,0,0,1,1h6a1,1,0,0,0,1-1v-5A1,1,0,0,0,21.62,15.38Zm-11-8v-3h4v3Zm-2,13h-4v-3h4Zm12,0h-4v-3h4Z" transform="translate(-2.63 -2.38)"/></svg>