<?xml version="1.0" encoding="utf-8"?>
<!-- Generator: Adobe Illustrator 21.0.0, SVG Export Plug-In . SVG Version: 6.00 Build 0)  -->
<svg version="1.1" id="Layer_1" xmlns="http://www.w3.org/2000/svg" xmlns:xlink="http://www.w3.org/1999/xlink" x="0px" y="0px"
	 viewBox="0 0 35 34.9" style="enable-background:new 0 0 35 34.9;" xml:space="preserve">
<style type="text/css">
	.st0{fill:#F3C644;}
</style>
<title>play-empty</title>
<g>
	<path class="st0" d="M9.3,31.8l-0.2-0.6c-1.9-4.5-2.8-9.2-2.8-14c0-5,1-9.8,3-14.4l0.2-0.6L30.9,17L9.3,31.8z M10,3.8
		c-1.8,4.3-2.7,8.8-2.6,13.4c0,4.5,0.8,8.9,2.5,13.1L29.2,17L10,3.8z"/>
	<path class="st0" d="M8.9,33.3l-0.7-1.7C6.2,27,5.3,22.2,5.3,17.2c0-5.1,1-10.1,3-14.7l0.7-1.7L32.7,17L8.9,33.3z M10.4,5.3
		C9,9.1,8.3,13.1,8.3,17.2c0,4,0.6,7.8,1.9,11.5L27.4,17L10.4,5.3z"/>
</g>
</svg>
