<svg id="icons" xmlns="http://www.w3.org/2000/svg" viewBox="0 0 20 18"><defs><style>.cls-1{fill:#757575;}</style></defs><title>ranges</title><path class="cls-1" d="M19.75,7.31a3,3,0,1,0-2.82-4H2.75v2H16.93A3,3,0,0,0,19.75,7.31Zm0-4a1,1,0,1,1-1,1A1,1,0,0,1,19.75,3.31Z" transform="translate(-2.75 -1.31)"/><path class="cls-1" d="M9.75,7.31a3,3,0,0,0-2.82,2H2.75v2H6.93a3,3,0,0,0,5.63,0H22.75v-2H12.57A3,3,0,0,0,9.75,7.31Zm0,4a1,1,0,1,1,1-1A1,1,0,0,1,9.75,11.31Z" transform="translate(-2.75 -1.31)"/><path class="cls-1" d="M19.75,13.31a3,3,0,0,0-2.82,2H2.75v2H16.93a3,3,0,1,0,2.82-4Zm0,4a1,1,0,1,1,1-1A1,1,0,0,1,19.75,17.31Z" transform="translate(-2.75 -1.31)"/></svg>