<svg id="icons" xmlns="http://www.w3.org/2000/svg" viewBox="0 0 17 19"><defs><style>.cls-1{fill:#757575;}</style></defs><title>support</title><path class="cls-1" d="M10.83,14a5,5,0,1,1,5-5h-2a3,3,0,1,0-3,3Z" transform="translate(-2.83 -4)"/><path class="cls-1" d="M14.83,14h-3V10h4v1.83a3,3,0,0,0,2-2.83V7h2V9A5,5,0,0,1,14.83,14Z" transform="translate(-2.83 -4)"/><path class="cls-1" d="M18.83,23h-16V21c0-3.53,3.29-6,8-6s8,2.47,8,6Zm-14-2h12c0-2.36-2.47-4-6-4S4.83,18.64,4.83,21Z" transform="translate(-2.83 -4)"/></svg>