<?xml version="1.0" encoding="utf-8"?>
<!-- Generator: Adobe Illustrator 21.0.0, SVG Export Plug-In . SVG Version: 6.00 Build 0)  -->
<svg version="1.1" id="icons" xmlns="http://www.w3.org/2000/svg" xmlns:xlink="http://www.w3.org/1999/xlink" x="0px" y="0px"
	 viewBox="0 0 21.5 23.3" style="enable-background:new 0 0 21.5 23.3;" xml:space="preserve">
<style type="text/css">
	.st0{fill:#757575;}
</style>
<g>
	<g>
		<path class="st0" d="M10.8,11.7c-2.2,0-4-1.8-4-4s1.8-4,4-4s4,1.8,4,4S13,11.7,10.8,11.7z M10.8,5.7c-1.1,0-2,0.9-2,2
			c0,1.1,0.9,2,2,2s2-0.9,2-2C12.8,6.6,11.9,5.7,10.8,5.7z"/>
	</g>
	<g>
		<path class="st0" d="M18.8,19.7h-16v-1c0-3.5,3.3-6,8-6s8,2.5,8,6V19.7z M5,17.7h11.7c-0.6-1.8-2.8-3-5.8-3S5.6,15.9,5,17.7z"/>
	</g>
</g>
</svg>
