<svg id="icons" xmlns="http://www.w3.org/2000/svg" viewBox="0 0 23.47 24.9"><defs><style>.cls-1{fill:#757575;}</style></defs><title>windows</title><path class="cls-1" d="M517,436.66v5.16h-5.47v-4.38l5.47-.78m2-2.31-9.47,1.35v8.12H519v-9.47Z" transform="translate(-509.53 -432.05)"/><path class="cls-1" d="M517,447.18v5.16l-5.47-.78v-4.38H517m2-2h-9.47v8.12l9.47,1.35v-9.47Z" transform="translate(-509.53 -432.05)"/><path class="cls-1" d="M531,434.36v7.31h-7.62v-6.23l7.62-1.09m2-2.31-11.62,1.66v10H533V432.05Z" transform="translate(-509.53 -432.05)"/><path class="cls-1" d="M531,447.33v7.31l-7.62-1.09v-6.23H531m2-2H521.38v10L533,456.95V445.33Z" transform="translate(-509.53 -432.05)"/></svg>